<?xml version="1.0" standalone="no"?>
<!DOCTYPE svg PUBLIC "-//W3C//DTD SVG 20010904//EN"
 "http://www.w3.org/TR/2001/REC-SVG-20010904/DTD/svg10.dtd">
<svg version="1.0" xmlns="http://www.w3.org/2000/svg"
 width="512.000000pt" height="512.000000pt" viewBox="0 0 512.000000 512.000000"
 preserveAspectRatio="xMidYMid meet">
<metadata>
Created by potrace 1.14, written by Peter Selinger 2001-2017
</metadata>
<g transform="translate(0.000000,512.000000) scale(0.100000,-0.100000)"
fill="#000000" stroke="none">
<path d="M3822 4954 c-106 -27 -186 -84 -252 -179 -104 -150 -84 -374 46 -509
258 -270 707 -98 719 274 5 186 -125 361 -305 410 -64 18 -148 19 -208 4z
m183 -213 c178 -80 159 -340 -28 -396 -100 -29 -213 24 -253 120 -28 68 -16
164 28 215 21 25 81 68 103 73 45 11 112 6 150 -12z"/>
<path d="M2139 4258 c-90 -16 -140 -51 -316 -227 -201 -200 -217 -226 -217
-346 0 -67 4 -88 26 -130 72 -138 233 -195 372 -132 39 18 88 58 176 145 l121
119 79 0 c44 1 80 -1 80 -3 0 -2 -135 -139 -300 -304 -164 -164 -310 -316
-324 -337 -43 -65 -59 -155 -43 -244 11 -59 56 -120 173 -239 68 -69 124 -130
124 -134 0 -12 -380 -389 -415 -412 -27 -18 -51 -19 -357 -20 -357 -1 -369 1
-408 56 -46 65 -22 162 48 196 32 15 70 18 287 19 279 1 293 4 315 70 14 42 5
77 -27 107 -24 23 -27 23 -293 25 -303 3 -326 -1 -424 -71 -95 -69 -142 -173
-133 -291 9 -124 83 -231 195 -283 l57 -27 375 0 375 0 68 33 c57 28 99 65
279 244 l211 210 183 -184 184 -184 0 -260 c0 -142 5 -278 10 -302 26 -112
103 -209 206 -258 51 -25 70 -29 149 -29 80 0 97 3 155 31 72 34 129 87 162
148 47 91 48 99 49 485 1 373 -1 411 -27 484 -27 77 -73 132 -304 362 -126
126 -230 235 -230 241 0 7 149 11 498 11 444 1 502 2 547 18 63 22 108 57 147
114 88 126 59 291 -67 391 -59 47 -94 53 -317 59 l-206 6 89 94 c127 135 163
212 161 347 -2 120 -50 226 -138 303 -47 41 -127 83 -184 97 -44 10 -1111 12
-1171 2z m1176 -220 c100 -55 141 -174 96 -275 -25 -55 -224 -261 -688 -714
-105 -102 -184 -188 -190 -205 -6 -17 -6 -42 -2 -59 6 -20 101 -122 288 -310
153 -154 287 -296 297 -315 17 -32 19 -66 19 -411 l0 -375 -25 -37 c-15 -22
-43 -44 -69 -56 -79 -34 -157 -6 -201 71 -23 42 -24 47 -25 318 -1 261 -3 278
-24 325 -18 40 -96 124 -400 430 -209 209 -384 390 -390 402 -16 32 -13 74 7
104 9 14 193 202 408 417 248 248 394 401 398 418 9 36 -9 85 -41 108 -23 17
-47 19 -269 20 -134 1 -257 -2 -272 -6 -17 -5 -77 -57 -153 -133 -145 -147
-166 -161 -215 -145 -40 14 -54 35 -54 84 0 31 14 49 148 184 81 82 159 155
172 163 34 19 278 25 765 19 339 -4 394 -7 420 -22z m446 -841 c36 -9 65 -65
52 -103 -19 -61 -37 -63 -440 -64 -200 0 -363 3 -363 7 0 9 155 160 170 165
18 6 555 2 581 -5z"/>
<path d="M728 1106 c-69 -46 -63 -114 15 -196 88 -91 169 -143 286 -182 l66
-23 1430 -2 c1533 -2 1506 -3 1627 48 108 46 222 136 270 214 36 59 16 124
-46 150 -49 21 -77 8 -149 -64 -77 -79 -162 -125 -252 -138 -33 -4 -683 -8
-1445 -7 l-1385 1 -63 22 c-35 12 -81 33 -102 46 -41 26 -110 91 -110 103 0
11 -52 40 -83 46 -17 3 -38 -3 -59 -18z"/>
<path d="M1285 561 c-61 -18 -87 -61 -80 -132 23 -220 272 -346 460 -231 55
33 93 77 122 140 40 85 32 188 -16 208 -48 19 -70 21 -98 8 -33 -16 -63 -61
-63 -94 0 -62 -60 -108 -124 -96 -44 8 -72 43 -80 98 -4 24 -15 52 -24 64 -21
25 -70 43 -97 35z"/>
<path d="M3281 559 c-58 -12 -76 -40 -76 -117 2 -159 134 -285 300 -285 94 -1
160 28 224 99 106 116 110 275 8 302 -65 18 -114 -19 -128 -95 -11 -61 -53
-103 -104 -103 -48 0 -93 42 -101 95 -11 77 -60 118 -123 104z"/>
</g>
</svg>
